<svg width="250" height="90" viewBox="0 0 250 90" fill="none" xmlns="http://www.w3.org/2000/svg">
<g clip-path="url(#clip0_29_223)">
<path d="M70.6408 26.25H55.396V62.7083L70.6408 26.25Z" fill="#E6E6E6"/>
<path d="M81.3677 26.25H96.5926V62.7083L81.3677 26.25Z" fill="#E6E6E6"/>
<path d="M76.0029 39.6875L85.7059 62.7086H79.3398L76.4399 55.3792H69.3389L76.0029 39.6875Z" fill="#E6E6E6"/>
<path d="M121.462 49.4343L123.26 54.5887C123.32 54.7178 123.409 54.7774 123.568 54.7774H127.024C127.213 54.7774 127.243 54.688 127.213 54.4993L120.072 34.6662C120.042 34.5073 120.012 34.4775 119.854 34.4775H115.563C115.444 34.4775 115.374 34.5669 115.374 34.696C115.315 35.7388 115.225 36.0566 115.096 36.3645L108.73 54.4695C108.701 54.688 108.77 54.7774 108.949 54.7774H112.037C112.226 54.7774 112.316 54.7178 112.385 54.5291L114.083 49.4343H121.462ZM115.067 46.0675C116 43.247 117.232 39.632 117.728 37.5662H117.758C118.374 39.7313 119.824 44.0217 120.479 46.0675H115.067Z" fill="#E6E6E6"/>
<path d="M136.392 55.0843C138.249 55.0843 140.226 54.7467 142.232 53.8826C142.391 53.823 142.421 53.7535 142.421 53.6046C142.361 53.0484 142.292 52.244 142.292 51.6282V32.9571C142.292 32.8379 142.292 32.7783 142.143 32.7783H138.776C138.647 32.7783 138.587 32.8379 138.587 32.9968V39.3231C138.061 39.2636 137.693 39.2338 137.256 39.2338C131.824 39.2338 128.487 42.819 128.487 47.2981C128.487 52.4922 131.913 55.0843 136.392 55.0843ZM138.587 51.6282C138.031 51.807 137.415 51.8765 136.79 51.8765C134.327 51.8765 132.31 50.4861 132.31 47.1094C132.31 44.12 134.386 42.3522 137.137 42.3522C137.693 42.3522 138.18 42.4118 138.587 42.5707V51.6282Z" fill="#E6E6E6"/>
<path d="M153.161 39.2334C148.523 39.2334 145.652 42.7889 145.652 47.1786C145.652 51.1015 147.937 55.084 153.091 55.084C157.451 55.084 160.51 51.8761 160.51 47.0792C160.51 42.8484 157.918 39.2334 153.161 39.2334ZM152.972 42.3519C155.594 42.3519 156.706 44.6063 156.706 47.1786C156.706 50.3566 155.067 51.9357 153.161 51.9357C150.807 51.9357 149.416 49.9594 149.416 47.109C149.416 44.1793 150.896 42.3519 152.972 42.3519Z" fill="#E6E6E6"/>
<path d="M163.991 32.7783C163.862 32.7783 163.772 32.8379 163.772 32.9968V54.1309C163.772 54.2203 163.862 54.3792 163.991 54.409C165.471 54.8659 167.02 55.0843 168.619 55.0843C173.197 55.0843 177.647 52.244 177.647 46.5234C177.647 42.382 174.806 39.2338 170.357 39.2338C169.334 39.2338 168.381 39.3927 167.546 39.6707L167.507 33.0266C167.507 32.8081 167.447 32.7783 167.229 32.7783H163.991ZM173.843 46.9008C173.843 50.3272 171.499 51.9361 168.967 51.9361C168.44 51.9361 167.973 51.9063 167.546 51.7772V42.7594C168.033 42.5707 168.619 42.4118 169.702 42.4118C172.145 42.4118 173.843 43.9611 173.843 46.9008Z" fill="#E6E6E6"/>
<path d="M190.212 48.0128C191.722 48.0128 192.963 47.983 193.39 47.8837C193.549 47.8539 193.609 47.7943 193.638 47.6652C193.728 47.3275 193.768 46.6224 193.768 45.7584C193.768 42.8187 192 39.2334 187.431 39.2334C182.763 39.2334 180.171 43.0371 180.171 47.3275C180.171 51.1313 182.178 55.084 187.799 55.084C189.904 55.084 191.265 54.7463 192.437 54.1902C192.556 54.1306 192.615 54.0313 192.615 53.8525V51.2802C192.615 51.1313 192.526 51.1015 192.437 51.1611C191.265 51.6576 189.994 51.9059 188.603 51.9059C185.455 51.9059 184.025 50.1679 183.935 48.0128H190.212ZM183.935 45.3512C184.184 43.8416 185.137 42.2029 187.272 42.2029C189.626 42.2029 190.242 44.1793 190.242 45.0731C190.242 45.1029 190.242 45.232 190.242 45.3214C190.113 45.3512 189.715 45.3512 188.544 45.3512H183.935Z" fill="#E6E6E6"/>
</g>
<defs>
<clipPath id="clip0_29_223">
<rect width="138.542" height="50" fill="white" transform="translate(55.396 20)"/>
</clipPath>
</defs>
</svg>
