<svg width="250" height="90" viewBox="0 0 250 90" fill="none" xmlns="http://www.w3.org/2000/svg">
<g clip-path="url(#clip0_29_219)">
<path fill-rule="evenodd" clip-rule="evenodd" d="M138.139 59.3812C131.51 64.2671 121.902 66.8739 113.63 66.8739C102.031 66.8739 91.5888 62.5838 83.6889 55.4486C83.0683 54.8876 83.6244 54.1229 84.3692 54.5598C92.8947 59.5202 103.436 62.5044 114.325 62.5044C121.669 62.5044 129.747 60.985 137.175 57.832C138.298 57.3553 139.236 58.5669 138.139 59.3812Z" fill="#E6E6E6"/>
<path fill-rule="evenodd" clip-rule="evenodd" d="M140.895 56.2282C140.05 55.1458 135.294 55.7168 133.159 55.97C132.508 56.0495 132.409 55.4834 132.995 55.0763C136.783 52.4099 143 53.1795 143.725 54.0733C144.45 54.972 143.536 61.2035 139.976 64.1777C139.43 64.6345 138.908 64.3912 139.152 63.7855C139.951 61.7894 141.744 57.3156 140.895 56.2282Z" fill="#E6E6E6"/>
<path fill-rule="evenodd" clip-rule="evenodd" d="M133.31 36.2538V33.6619C133.31 33.2696 133.608 33.0065 133.965 33.0065H145.569C145.941 33.0065 146.239 33.2746 146.239 33.6619V35.8814C146.234 36.2538 145.922 36.7404 145.365 37.51L139.352 46.0951C141.587 46.0405 143.945 46.3731 145.971 47.5152C146.428 47.7733 146.552 48.1507 146.587 48.5231V51.2888C146.587 51.6662 146.17 52.1081 145.733 51.8797C142.163 50.0077 137.421 49.8042 133.474 51.8995C133.071 52.118 132.649 51.6811 132.649 51.3037V48.677C132.649 48.255 132.654 47.535 133.076 46.8945L140.043 36.9042H133.98C133.608 36.9042 133.31 36.6411 133.31 36.2538Z" fill="#E6E6E6"/>
<path fill-rule="evenodd" clip-rule="evenodd" d="M90.9802 52.4259H87.4499C87.1122 52.4011 86.8441 52.1478 86.8193 51.8251V33.7066C86.8193 33.3441 87.1222 33.0562 87.4995 33.0562H90.7915C91.1341 33.071 91.4072 33.3342 91.4321 33.6619V36.0304H91.4966C92.3556 33.7414 93.9693 32.6738 96.1442 32.6738C98.3537 32.6738 99.7341 33.7414 100.727 36.0304C101.581 33.7414 103.523 32.6738 105.603 32.6738C107.083 32.6738 108.701 33.2846 109.69 34.655C110.807 36.1793 110.578 38.3939 110.578 40.3353L110.573 51.7705C110.573 52.1329 110.271 52.4259 109.893 52.4259H106.368C106.015 52.4011 105.732 52.118 105.732 51.7705V42.1675C105.732 41.4029 105.802 39.4962 105.633 38.7712C105.37 37.5547 104.58 37.2121 103.557 37.2121C102.703 37.2121 101.81 37.7831 101.447 38.6968C101.085 39.6104 101.119 41.1397 101.119 42.1675V51.7705C101.119 52.1329 100.817 52.4259 100.439 52.4259H96.9138C96.5563 52.4011 96.2782 52.118 96.2782 51.7705L96.2733 42.1675C96.2733 40.1466 96.6059 37.1724 94.0985 37.1724C91.5612 37.1724 91.6605 40.0722 91.6605 42.1675V51.7705C91.6605 52.1329 91.3576 52.4259 90.9802 52.4259Z" fill="#E6E6E6"/>
<path fill-rule="evenodd" clip-rule="evenodd" d="M156.23 32.6738C161.468 32.6738 164.303 37.1724 164.303 42.8925C164.303 48.4189 161.17 52.8033 156.23 52.8033C151.085 52.8033 148.285 48.3047 148.285 42.6988C148.285 37.0582 151.12 32.6738 156.23 32.6738ZM156.259 36.373C153.657 36.373 153.494 39.9182 153.494 42.1278C153.494 44.3423 153.459 49.0693 156.23 49.0693C158.965 49.0693 159.095 45.256 159.095 42.9322C159.095 41.4029 159.03 39.5756 158.568 38.1258C158.171 36.8646 157.381 36.373 156.259 36.373Z" fill="#E6E6E6"/>
<path fill-rule="evenodd" clip-rule="evenodd" d="M171.096 52.4259H167.58C167.228 52.4011 166.945 52.118 166.945 51.7705L166.94 33.647C166.97 33.3143 167.263 33.0562 167.62 33.0562H170.892C171.2 33.071 171.453 33.2796 171.523 33.5626V36.3333H171.587C172.576 33.8556 173.961 32.6738 176.399 32.6738C177.983 32.6738 179.527 33.2448 180.52 34.8089C181.444 36.2588 181.444 38.6968 181.444 40.4495V51.8549C181.404 52.1727 181.111 52.4259 180.763 52.4259H177.223C176.9 52.4011 176.632 52.1627 176.597 51.8549V42.0136C176.597 40.0324 176.826 37.1327 174.388 37.1327C173.529 37.1327 172.739 37.7087 172.347 38.5826C171.851 39.6898 171.786 40.7921 171.786 42.0136V51.7705C171.781 52.1329 171.473 52.4259 171.096 52.4259Z" fill="#E6E6E6"/>
<path fill-rule="evenodd" clip-rule="evenodd" d="M124.059 43.7713C124.059 45.1467 124.094 46.2937 123.399 47.5152C122.838 48.5082 121.944 49.119 120.956 49.119C119.6 49.119 118.806 48.0862 118.806 46.5618C118.806 43.5528 121.502 43.0066 124.059 43.0066V43.7713ZM127.619 52.3762C127.386 52.5848 127.048 52.5997 126.785 52.4606C125.613 51.4874 125.4 51.0356 124.759 50.1071C122.823 52.0833 121.448 52.6741 118.94 52.6741C115.966 52.6741 113.657 50.8419 113.657 47.1726C113.657 44.3076 115.206 42.3562 117.421 41.4028C119.337 40.5587 122.014 40.4098 124.059 40.1764V39.7196C124.059 38.8804 124.124 37.8874 123.627 37.1624C123.2 36.512 122.376 36.2439 121.646 36.2439C120.301 36.2439 119.104 36.934 118.811 38.3641C118.751 38.6818 118.518 38.9947 118.195 39.0095L114.774 38.6421C114.486 38.5776 114.163 38.3442 114.248 37.9023C115.032 33.7513 118.786 32.5 122.143 32.5C123.861 32.5 126.105 32.9568 127.461 34.2577C129.179 35.8615 129.015 38.0016 129.015 40.3303V45.8319C129.015 47.4854 129.7 48.2103 130.345 49.1041C130.569 49.4218 130.619 49.8042 130.33 50.0425C129.611 50.6433 128.329 51.7605 127.624 52.3861L127.619 52.3762Z" fill="#E6E6E6"/>
<path fill-rule="evenodd" clip-rule="evenodd" d="M77.7774 43.7713C77.7774 45.1467 77.8121 46.2937 77.117 47.5151C76.5559 48.5082 75.6671 49.1189 74.674 49.1189C73.3185 49.1189 72.529 48.0862 72.529 46.5618C72.529 43.5528 75.2252 43.0066 77.7774 43.0066V43.7713ZM81.3375 52.3762C81.1041 52.5847 80.7665 52.5996 80.5033 52.4606C79.3315 51.4874 79.123 51.0356 78.4775 50.107C76.541 52.0832 75.1706 52.6741 72.6581 52.6741C69.6888 52.6741 67.375 50.8419 67.375 47.1725C67.375 44.3075 68.9291 42.3562 71.1387 41.4028C73.0553 40.5587 75.7316 40.4098 77.7774 40.1764V39.7196C77.7774 38.8804 77.8419 37.8874 77.3503 37.1624C76.9184 36.512 76.0941 36.2439 75.3692 36.2439C74.0236 36.2439 72.822 36.934 72.529 38.364C72.4694 38.6818 72.2361 38.9946 71.9183 39.0095L68.4922 38.6421C68.2042 38.5776 67.8864 38.3442 67.9659 37.9023C68.7554 33.7513 72.5042 32.5 75.8607 32.5C77.5787 32.5 79.8231 32.9568 81.1786 34.2577C82.8966 35.8615 82.7328 38.0016 82.7328 40.3303V45.8319C82.7328 47.4854 83.418 48.2103 84.0635 49.1041C84.2919 49.4218 84.3415 49.8042 84.0535 50.0425C83.3336 50.6433 82.0525 51.7605 81.3474 52.3861L81.3375 52.3762Z" fill="#E6E6E6"/>
</g>
<defs>
<clipPath id="clip0_29_219">
<rect width="114.583" height="50" fill="white" transform="translate(67.375 20)"/>
</clipPath>
</defs>
</svg>
