<svg width="250" height="90" viewBox="0 0 250 90" fill="none" xmlns="http://www.w3.org/2000/svg">
<g clip-path="url(#clip0_29_212)">
<path d="M101.151 53.7806L102.68 50.2061C104.355 51.4462 106.539 52.1025 108.723 52.1025C110.325 52.1025 111.344 51.4827 111.344 50.5345C111.308 47.9083 101.697 49.9508 101.624 43.3481C101.587 39.9924 104.573 37.4027 108.796 37.4027C111.308 37.4027 113.82 38.023 115.604 39.4458L114.175 43.0964C112.534 42.0412 110.507 41.3056 108.578 41.3056C107.267 41.3056 106.393 41.9253 106.393 42.7283C106.43 45.318 116.114 43.8953 116.223 50.2061C116.223 53.6349 113.31 56.0424 109.16 56.0424C106.102 56.0424 103.299 55.313 101.15 53.7806H101.151ZM162.045 48.9118C161.659 49.5977 161.097 50.1685 160.418 50.5658C159.738 50.9631 158.965 51.1725 158.178 51.1726C155.726 51.1726 153.737 49.1802 153.737 46.7226C153.737 44.2649 155.726 42.2725 158.178 42.2725C158.965 42.2726 159.738 42.482 160.418 42.8793C161.097 43.2766 161.659 43.8474 162.045 44.5333L166.296 42.1733C164.704 39.3272 161.666 37.4027 158.178 37.4027C153.041 37.4027 148.877 41.575 148.877 46.7226C148.877 51.8696 153.041 56.0424 158.178 56.0424C161.666 56.0424 164.704 54.1179 166.296 51.2718L162.045 48.9118ZM118.982 55.6774H124.297V29.6445H118.982L118.982 55.6774ZM168.981 29.6445V55.6774H174.296V47.878L180.594 55.6774H187.388L179.379 46.4119L186.805 37.7661H180.303L174.296 44.9541V29.6445H168.981ZM140.672 37.7672V39.8833C139.799 38.424 137.651 37.4027 135.394 37.4027C130.734 37.4027 127.057 41.5248 127.057 46.7043C127.057 51.8837 130.734 56.0424 135.394 56.0424C137.651 56.0424 139.799 55.0211 140.672 53.5618V55.6774H145.987V37.7672H140.672ZM140.672 48.9478C139.908 50.2244 138.306 51.1721 136.522 51.1721C134.069 51.1721 132.081 49.1802 132.081 46.7226C132.081 44.2649 134.069 42.2725 136.522 42.2725C138.306 42.2725 139.908 43.2572 140.672 44.5699V48.9478Z" fill="#E6E6E6"/>
<path d="M73.082 29.0664C71.3595 29.0664 69.9633 30.4657 69.9633 32.1913C69.9629 32.6012 70.0433 33.0073 70.1998 33.3862C70.3563 33.7651 70.5859 34.1095 70.8755 34.3996C71.1651 34.6898 71.509 34.9201 71.8876 35.0774C72.2661 35.2346 72.672 35.3158 73.082 35.3162H76.2011V32.1913C76.2018 31.3633 75.8736 30.5689 75.2886 29.9829C74.7037 29.3969 73.9099 29.0672 73.082 29.0664ZM73.082 37.3994H64.7651C63.0426 37.3994 61.6465 38.7987 61.6465 40.5248C61.6465 42.2505 63.0426 43.6497 64.7651 43.6497H73.0825C74.8044 43.6497 76.2011 42.2505 76.2011 40.5248C76.2011 38.7987 74.8044 37.3994 73.082 37.3994Z" fill="#E6E6E6"/>
<path d="M92.8339 40.5248C92.8339 38.7987 91.4372 37.3994 89.7148 37.3994C87.9923 37.3994 86.5961 38.7987 86.5961 40.5248V43.6497H89.7148C90.5428 43.6489 91.3365 43.3192 91.9215 42.7332C92.5064 42.1472 92.8346 41.3528 92.8339 40.5248ZM84.5171 40.5248V32.1913C84.5178 31.3633 84.1895 30.5689 83.6046 29.9829C83.0197 29.3969 82.2259 29.0672 81.3979 29.0664C79.6754 29.0664 78.2793 30.4657 78.2793 32.1913V40.5243C78.2793 42.251 79.6754 43.6503 81.3979 43.6503C82.2259 43.6494 83.0197 43.3197 83.6046 42.7337C84.1895 42.1477 84.5178 41.3534 84.5171 40.5254" fill="#E6E6E6"/>
<path d="M81.3979 60.3177C82.2259 60.3169 83.0197 59.9872 83.6046 59.4012C84.1895 58.8152 84.5178 58.0208 84.5171 57.1928C84.5178 56.3648 84.1895 55.5705 83.6046 54.9844C83.0197 54.3984 82.2259 54.0687 81.3979 54.0679H78.2793V57.1928C78.2793 58.9184 79.6754 60.3177 81.3979 60.3177ZM81.3979 51.9847H89.7153C91.4372 51.9847 92.8339 50.5854 92.8339 48.8592C92.8346 48.0313 92.5064 47.2369 91.9215 46.6509C91.3365 46.0649 90.5428 45.7352 89.7148 45.7344H81.3979C79.6754 45.7344 78.2793 47.1336 78.2793 48.8592C78.2789 49.2692 78.3592 49.6752 78.5157 50.0541C78.6722 50.433 78.9018 50.7774 79.1914 51.0676C79.481 51.3578 79.8249 51.588 80.2035 51.7453C80.5821 51.9026 80.988 51.9837 81.3979 51.9841" fill="#E6E6E6"/>
<path d="M61.6465 48.8592C61.6461 49.2692 61.7264 49.6752 61.8829 50.0541C62.0394 50.433 62.269 50.7774 62.5586 51.0676C62.8482 51.3578 63.1921 51.588 63.5707 51.7453C63.9493 51.9026 64.3552 51.9837 64.7651 51.9841C65.5931 51.9833 66.3869 51.6536 66.9718 51.0676C67.5567 50.4816 67.8849 49.6872 67.8843 48.8592V45.7344H64.7651C63.0426 45.7344 61.6465 47.1336 61.6465 48.8592ZM69.9633 48.8592V57.1923C69.9633 58.9184 71.3595 60.3177 73.082 60.3177C73.9099 60.3169 74.7037 59.9872 75.2886 59.4012C75.8736 58.8152 76.2018 58.0208 76.2011 57.1928V48.8592C76.2015 48.4492 76.1212 48.0432 75.9646 47.6642C75.8081 47.2853 75.5784 46.9409 75.2888 46.6507C74.9991 46.3606 74.6552 46.1303 74.2765 45.973C73.8979 45.8158 73.492 45.7347 73.082 45.7344C71.3595 45.7344 69.9633 47.1336 69.9633 48.8592Z" fill="#E6E6E6"/>
</g>
<defs>
<clipPath id="clip0_29_212">
<rect width="126.042" height="50" fill="white" transform="translate(61.646 20)"/>
</clipPath>
</defs>
</svg>
