<svg width="250" height="90" viewBox="0 0 250 90" fill="none" xmlns="http://www.w3.org/2000/svg">
<g clip-path="url(#clip0_29_206)">
<path d="M73.7028 23.207C61.6216 23.207 51.8274 33.001 51.8274 45.0822C51.8274 57.1639 61.6216 66.957 73.7028 66.957C85.7853 66.957 95.5785 57.1639 95.5785 45.0822C95.5785 33.0018 85.7853 23.2081 73.7025 23.2081L73.7028 23.207ZM83.7347 54.7572C83.3429 55.3999 82.5018 55.6036 81.8592 55.2092C76.723 52.0719 70.2573 51.3614 62.6427 53.1011C61.9089 53.2683 61.1775 52.8085 61.0103 52.0745C60.8424 51.3405 61.3003 50.6091 62.0359 50.4419C70.3688 48.5381 77.5166 49.3578 83.2828 52.8817C83.9254 53.2761 84.1292 54.1146 83.7347 54.7572ZM86.4122 48.8009C85.9185 49.6034 84.8684 49.8568 84.0665 49.363C78.1864 45.7488 69.2231 44.7021 62.2681 46.8133C61.3661 47.0857 60.4135 46.5774 60.1397 45.677C59.868 44.775 60.3766 43.8241 61.2771 43.5498C69.2216 41.1393 79.0981 42.307 85.8506 46.4564C86.6526 46.9501 86.9059 48.0003 86.4122 48.8012V48.8009ZM86.6421 42.5985C79.5918 38.4109 67.9596 38.0258 61.2282 40.0688C60.1473 40.3967 59.0042 39.7864 58.6766 38.7055C58.349 37.6241 58.9587 36.4817 60.0404 36.1531C67.7676 33.8074 80.6131 34.2606 88.7303 39.0793C89.7047 39.6564 90.0234 40.912 89.4461 41.883C88.8714 42.8553 87.6123 43.1758 86.6432 42.5985H86.6421ZM111.343 43.4009C107.566 42.5003 106.895 41.8681 106.895 40.5398C106.895 39.2849 108.075 38.4404 109.833 38.4404C111.536 38.4404 113.224 39.0817 114.995 40.4019C115.047 40.4418 115.115 40.4578 115.18 40.4473C115.248 40.4374 115.306 40.4011 115.345 40.3465L117.189 37.7468C117.265 37.6397 117.244 37.4921 117.142 37.4104C115.034 35.7195 112.662 34.8974 109.888 34.8974C105.81 34.8974 102.961 37.3448 102.961 40.8465C102.961 44.6015 105.419 45.9311 109.666 46.9575C113.279 47.79 113.89 48.4874 113.89 49.734C113.89 51.1158 112.657 51.9752 110.672 51.9752C108.467 51.9752 106.667 51.2308 104.656 49.491C104.606 49.4466 104.538 49.4283 104.476 49.431C104.408 49.4362 104.348 49.4675 104.306 49.5172L102.237 51.9779C102.151 52.0823 102.161 52.2339 102.261 52.3227C104.601 54.4124 107.48 55.5148 110.588 55.5148C114.982 55.5148 117.821 53.1142 117.821 49.397C117.829 46.2605 115.951 44.5234 111.351 43.4043L111.343 43.4009ZM127.763 39.6759C125.859 39.6759 124.297 40.4262 123.007 41.9634V40.2331C123.007 40.0965 122.897 39.9852 122.761 39.9852H119.378C119.242 39.9852 119.133 40.0965 119.133 40.2331V59.4592C119.133 59.5951 119.242 59.7074 119.378 59.7074H122.761C122.897 59.7074 123.007 59.5951 123.007 59.4592V53.3911C124.297 54.8356 125.859 55.5435 127.763 55.5435C131.303 55.5435 134.887 52.819 134.887 47.6105C134.892 42.401 131.308 39.6757 127.766 39.6757L127.763 39.6759ZM130.953 47.6105C130.953 50.2616 129.32 52.1137 126.98 52.1137C124.668 52.1137 122.923 50.1781 122.923 47.6105C122.923 45.0427 124.668 43.1076 126.98 43.1076C129.281 43.1073 130.953 45.0007 130.953 47.6103V47.6105ZM144.069 39.6759C139.511 39.6759 135.94 43.1857 135.94 47.6672C135.94 52.1006 139.487 55.5723 144.014 55.5723C148.588 55.5723 152.169 52.0745 152.169 47.6105C152.169 43.1617 148.612 39.6765 144.069 39.6765V39.6759ZM144.069 52.1398C141.645 52.1398 139.816 50.1911 139.816 47.6092C139.816 45.0156 141.582 43.1335 144.014 43.1335C146.454 43.1335 148.293 45.0814 148.293 47.6659C148.293 50.259 146.517 52.1398 144.069 52.1398ZM161.902 39.9852H158.18V36.1803C158.18 36.0439 158.07 35.9327 157.934 35.9327H154.552C154.416 35.9327 154.304 36.0439 154.304 36.1803V39.9852H152.679C152.543 39.9852 152.433 40.0965 152.433 40.2331V43.1397C152.433 43.2761 152.543 43.3876 152.679 43.3876H154.304V50.9095C154.304 53.9475 155.816 55.4887 158.802 55.4887C160.014 55.4887 161.02 55.2379 161.968 54.6998C162.046 54.658 162.093 54.5744 162.093 54.4856V51.7166C162.093 51.6331 162.049 51.5521 161.976 51.5077C161.902 51.4606 161.811 51.458 161.735 51.4972C161.085 51.8237 160.455 51.9752 159.75 51.9752C158.666 51.9752 158.18 51.4815 158.18 50.3792V43.3889H161.902C162.038 43.3889 162.148 43.2776 162.148 43.141V40.2347C162.153 40.0981 162.043 39.9868 161.905 39.9868L161.902 39.9852ZM174.869 40.0001V39.5328C174.869 38.158 175.397 37.5449 176.578 37.5449C177.283 37.5449 177.85 37.6849 178.485 37.8965C178.563 37.9211 178.644 37.9088 178.707 37.862C178.772 37.8153 178.809 37.7403 178.809 37.6609V34.811C178.809 34.702 178.741 34.6057 178.634 34.5735C177.965 34.3742 177.108 34.1697 175.823 34.1697C172.701 34.1697 171.048 35.9287 171.048 39.2549V39.9706H169.423C169.287 39.9706 169.175 40.0819 169.175 40.2182V43.1397C169.175 43.2761 169.287 43.3876 169.423 43.3876H171.048V54.9871C171.048 55.1256 171.16 55.2353 171.296 55.2353H174.676C174.815 55.2353 174.924 55.1256 174.924 54.9871V43.3884H178.082L182.92 54.9871C182.372 56.2044 181.831 56.4473 181.094 56.4473C180.499 56.4473 179.869 56.2697 179.229 55.9171C179.169 55.8857 179.096 55.8805 179.033 55.8988C178.968 55.9223 178.913 55.9693 178.887 56.032L177.74 58.5476C177.685 58.6677 177.732 58.8062 177.847 58.8689C179.044 59.5167 180.123 59.7936 181.457 59.7936C183.955 59.7936 185.337 58.6285 186.551 55.4991L192.418 40.3387C192.45 40.2624 192.439 40.1762 192.392 40.1085C192.348 40.0414 192.272 40.0009 192.191 40.0009H188.67C188.563 40.0009 188.469 40.068 188.435 40.167L184.827 50.468L180.878 40.1602C180.841 40.0644 180.749 40.0009 180.648 40.0009H174.869V40.0001ZM167.351 39.9852H163.969C163.833 39.9852 163.721 40.0965 163.721 40.2331V54.9871C163.721 55.1256 163.833 55.2353 163.969 55.2353H167.351C167.487 55.2353 167.6 55.1256 167.6 54.9871V40.2342C167.6 40.0976 167.49 39.9863 167.351 39.9863V39.9852ZM165.68 33.2669C164.34 33.2669 163.253 34.3515 163.253 35.6913C163.253 37.0319 164.34 38.1178 165.68 38.1178C167.02 38.1178 168.104 37.0319 168.104 35.6913C168.104 34.3517 167.017 33.2669 165.68 33.2669ZM195.307 44.7293C193.97 44.7293 192.928 43.6543 192.928 42.349C192.928 41.0437 193.983 39.9565 195.32 39.9565C196.658 39.9565 197.7 41.0312 197.7 42.3354C197.7 43.6407 196.645 44.7293 195.307 44.7293ZM195.32 40.1932C194.1 40.1932 193.178 41.1623 193.178 42.349C193.178 43.5352 194.095 44.4913 195.307 44.4913C196.527 44.4913 197.449 43.5229 197.449 42.3354C197.449 41.1492 196.532 40.1932 195.32 40.1932ZM195.848 42.5802L196.522 43.5227H195.953L195.347 42.658H194.827V43.5227H194.351V41.0244H195.464C196.047 41.0244 196.428 41.3214 196.428 41.8213C196.431 42.2309 196.193 42.4812 195.851 42.5802H195.848ZM195.446 41.453H194.827V42.2432H195.446C195.754 42.2432 195.939 42.092 195.939 41.8477C195.939 41.5907 195.754 41.453 195.446 41.453Z" fill="#E6E6E6"/>
</g>
<defs>
<clipPath id="clip0_29_206">
<rect width="145.833" height="50" fill="white" transform="translate(51.75 20)"/>
</clipPath>
</defs>
</svg>
