<svg width="250" height="90" viewBox="0 0 250 90" fill="none" xmlns="http://www.w3.org/2000/svg">
<g clip-path="url(#clip0_29_203)">
<path d="M74.668 56.8698L84.933 40.8971H75.884C75.8073 40.437 75.7744 39.9331 75.7744 39.3744C75.7744 38.8375 75.8073 38.3446 75.884 37.8954H90.5311L90.7174 38.3884L80.3756 54.394H90.071C90.1477 54.8979 90.1806 55.4237 90.1806 55.9496C90.1806 56.4535 90.1477 56.9356 90.071 57.3957H74.8542L74.668 56.8698Z" fill="#E6E6E6"/>
<path d="M104.291 44.5454C104.291 43.0446 103.908 42.0148 103.152 41.4232C102.396 40.8426 101.289 40.5468 99.8431 40.5468C98.9558 40.5468 98.1232 40.6125 97.3563 40.7549C96.5785 40.8973 95.8335 41.0726 95.0886 41.3027C94.6065 40.4701 94.3655 39.4622 94.3655 38.301C95.231 38.0271 96.1731 37.808 97.2139 37.6546C98.2546 37.5012 99.2515 37.4245 100.216 37.4245C102.746 37.4245 104.674 38.0052 106 39.1555C107.315 40.3058 107.983 42.1572 107.983 44.6878V56.892C107.095 57.0892 106.022 57.3083 104.751 57.5164C103.48 57.7355 102.188 57.8341 100.873 57.8341C99.635 57.8341 98.5066 57.7246 97.5097 57.4945C96.5127 57.2644 95.6582 56.9029 94.9571 56.388C94.256 55.8841 93.7192 55.2377 93.3357 54.4489C92.9523 53.6602 92.7661 52.7071 92.7661 51.6006C92.7661 50.516 92.9852 49.552 93.4343 48.7303C93.8725 47.9087 94.4751 47.2185 95.2419 46.6817C95.9978 46.1339 96.8743 45.7286 97.8712 45.4657C98.8572 45.2027 99.8979 45.0603 100.993 45.0603C101.804 45.0603 102.472 45.0822 102.987 45.1151C103.502 45.148 103.94 45.2027 104.302 45.2466V44.5454H104.291ZM104.291 48.2373C103.908 48.1826 103.425 48.1387 102.845 48.084C102.264 48.0292 101.771 48.0073 101.366 48.0073C99.7883 48.0073 98.5942 48.3031 97.7726 48.8837C96.9509 49.4643 96.5347 50.3517 96.5347 51.5458C96.5347 52.3017 96.6771 52.9043 96.951 53.3315C97.2248 53.7588 97.5754 54.0874 97.9917 54.3175C98.408 54.5475 98.8681 54.69 99.383 54.7338C99.8869 54.7886 100.369 54.8105 100.829 54.8105C101.41 54.8105 102.012 54.7776 102.637 54.7119C103.261 54.6461 103.809 54.5585 104.291 54.427V48.2373Z" fill="#E6E6E6"/>
<path d="M112.091 37.8962C112.343 37.8414 112.606 37.8086 112.869 37.7867C113.132 37.7648 113.406 37.7538 113.69 37.7538C113.942 37.7538 114.205 37.7648 114.49 37.7867C114.764 37.8086 115.038 37.8524 115.29 37.8962C115.312 37.951 115.345 38.1044 115.388 38.3673C115.421 38.6302 115.465 38.9151 115.498 39.2218C115.531 39.5286 115.575 39.8134 115.608 40.0982C115.64 40.3831 115.662 40.5583 115.662 40.635C115.914 40.2297 116.221 39.8353 116.572 39.4519C116.922 39.0684 117.349 38.7288 117.842 38.4221C118.335 38.1153 118.894 37.8743 119.519 37.699C120.143 37.5237 120.833 37.4361 121.589 37.4361C122.728 37.4361 123.791 37.6223 124.766 38.0058C125.741 38.3892 126.574 38.9698 127.275 39.7696C127.976 40.5693 128.513 41.5881 128.907 42.8151C129.302 44.0421 129.499 45.4991 129.499 47.1753C129.499 50.5276 128.59 53.1459 126.782 55.0302C124.963 56.9145 122.4 57.8676 119.08 57.8676C118.522 57.8676 117.952 57.8347 117.371 57.758C116.791 57.6814 116.276 57.5828 115.849 57.4513V66.3908C115.542 66.4455 115.224 66.4784 114.874 66.5003C114.534 66.5222 114.216 66.5332 113.942 66.5332C113.669 66.5332 113.351 66.5222 113.011 66.5003C112.672 66.4784 112.354 66.4346 112.08 66.3908V37.8962H112.091ZM115.86 54.2086C116.342 54.3838 116.835 54.5153 117.339 54.592C117.842 54.6687 118.5 54.7015 119.321 54.7015C120.231 54.7015 121.074 54.5591 121.83 54.2633C122.586 53.9675 123.243 53.5184 123.791 52.9158C124.339 52.3023 124.766 51.5355 125.084 50.6152C125.402 49.695 125.555 48.5885 125.555 47.3287C125.555 45.302 125.182 43.6915 124.438 42.4974C123.693 41.3033 122.466 40.7117 120.767 40.7117C120.132 40.7117 119.53 40.8213 118.938 41.0513C118.357 41.2814 117.832 41.621 117.382 42.0811C116.922 42.5412 116.561 43.1109 116.276 43.812C115.991 44.5132 115.86 45.3348 115.86 46.2989V54.2086Z" fill="#E6E6E6"/>
<path d="M134.188 40.8533H131.712C131.657 40.6452 131.624 40.4151 131.602 40.1522C131.58 39.8892 131.569 39.6263 131.569 39.3744C131.569 39.1224 131.58 38.8595 131.602 38.5965C131.624 38.3336 131.668 38.0926 131.712 37.8954H137.88V57.4066C137.606 57.4614 137.288 57.4943 136.948 57.5162C136.609 57.5381 136.291 57.5491 136.017 57.5491C135.765 57.5491 135.469 57.5381 135.119 57.5162C134.779 57.4943 134.461 57.4505 134.188 57.4066V40.8533Z" fill="#E6E6E6"/>
<path d="M145.975 48.5772C146.03 50.7025 146.578 52.2691 147.63 53.2551C148.681 54.2411 150.237 54.7341 152.286 54.7341C154.082 54.7341 155.802 54.4164 157.424 53.781C157.632 54.1644 157.796 54.6245 157.917 55.1723C158.048 55.72 158.114 56.2568 158.147 56.7936C157.314 57.1442 156.394 57.4181 155.386 57.5934C154.389 57.7687 153.272 57.8563 152.056 57.8563C150.281 57.8563 148.758 57.6043 147.487 57.1113C146.216 56.6184 145.176 55.9172 144.354 55.0189C143.532 54.1206 142.93 53.0579 142.546 51.82C142.163 50.593 141.977 49.2455 141.977 47.7665C141.977 46.3204 142.163 44.973 142.525 43.7131C142.886 42.4533 143.456 41.3687 144.212 40.4375C144.968 39.5173 145.932 38.7723 147.082 38.2355C148.232 37.6877 149.602 37.4139 151.168 37.4139C152.516 37.4139 153.688 37.6439 154.707 38.104C155.726 38.5642 156.569 39.1886 157.259 39.9883C157.939 40.7881 158.464 41.7412 158.815 42.8367C159.165 43.9432 159.352 45.1373 159.352 46.43C159.352 46.7806 159.341 47.164 159.308 47.5474C159.286 47.9418 159.253 48.2814 159.231 48.5553H145.975V48.5772ZM155.638 45.7617C155.638 45.0496 155.539 44.3704 155.353 43.7241C155.167 43.0777 154.882 42.519 154.52 42.037C154.148 41.5549 153.688 41.1715 153.118 40.8757C152.549 40.5799 151.869 40.4375 151.081 40.4375C149.536 40.4375 148.353 40.9086 147.52 41.8398C146.698 42.7819 146.195 44.0856 146.019 45.7617H155.638Z" fill="#E6E6E6"/>
<path d="M163.515 37.8954C163.789 37.8406 164.063 37.8078 164.315 37.7858C164.566 37.7639 164.829 37.753 165.114 37.753C165.388 37.753 165.673 37.7639 165.947 37.7858C166.221 37.8078 166.484 37.8516 166.703 37.8954C166.779 38.2788 166.856 38.7718 166.933 39.3963C167.01 40.0207 167.042 40.5466 167.042 40.9738C167.579 40.1084 168.28 39.3634 169.157 38.728C170.033 38.0926 171.151 37.7749 172.52 37.7749C172.728 37.7749 172.936 37.7858 173.144 37.7968C173.364 37.8078 173.539 37.8297 173.692 37.8516C173.747 38.0816 173.78 38.3227 173.802 38.5746C173.824 38.8266 173.835 39.0895 173.835 39.3744C173.835 39.6811 173.813 39.9988 173.78 40.3275C173.747 40.6561 173.692 40.9738 173.648 41.2806C173.44 41.2258 173.232 41.2039 173.024 41.2039C172.805 41.2039 172.64 41.2039 172.509 41.2039C171.83 41.2039 171.172 41.3025 170.548 41.4887C169.924 41.675 169.365 42.0146 168.872 42.4966C168.379 42.9786 167.985 43.6359 167.689 44.4795C167.393 45.3121 167.251 46.3967 167.251 47.7113V57.4067C166.977 57.4614 166.659 57.4943 166.319 57.5162C165.98 57.5381 165.662 57.5491 165.388 57.5491C165.114 57.5491 164.797 57.5381 164.457 57.5162C164.117 57.4943 163.789 57.4505 163.482 57.4067V37.8954H163.515Z" fill="#E6E6E6"/>
<path d="M141.462 26.4148H137.781L140.388 23.8074C140.18 23.5226 139.95 23.2487 139.709 22.9967C139.457 22.7448 139.194 22.5147 138.898 22.3175L136.291 24.9248V21.2439C135.951 21.1891 135.601 21.1562 135.239 21.1562H135.228C134.867 21.1562 134.516 21.1891 134.177 21.2439V24.9248L131.569 22.3175C131.284 22.5257 131.01 22.7557 130.758 22.9967C130.507 23.2487 130.287 23.5116 130.079 23.8074L132.698 26.4148H129.017C129.017 26.4148 128.929 27.1049 128.929 27.4665C128.929 27.828 128.962 28.1785 129.017 28.5182H132.698L130.09 31.1255C130.496 31.6952 131 32.1991 131.58 32.6154L134.187 30.0081V33.689C134.527 33.7438 134.878 33.7767 135.239 33.7767H135.25C135.612 33.7767 135.962 33.7438 136.302 33.689V30.0081L138.909 32.6154C139.194 32.4073 139.468 32.1772 139.72 31.9362C139.972 31.6842 140.202 31.4213 140.399 31.1255L137.792 28.5182H141.473C141.527 28.1785 141.56 27.828 141.56 27.4665V27.4555C141.549 27.1049 141.527 26.7544 141.462 26.4148ZM136.817 27.4774C136.817 27.9485 136.729 28.3977 136.576 28.8139C136.159 28.9673 135.71 29.055 135.239 29.055C134.768 29.055 134.319 28.9673 133.903 28.8139C133.749 28.3977 133.662 27.9485 133.662 27.4774V27.4665C133.662 26.9954 133.749 26.5462 133.903 26.1299C134.319 25.9765 134.768 25.8889 135.239 25.8889C135.71 25.8889 136.159 25.9765 136.576 26.1299C136.729 26.5462 136.817 26.9954 136.817 27.4774Z" fill="#E6E6E6"/>
</g>
<defs>
<clipPath id="clip0_29_203">
<rect width="100" height="50" fill="white" transform="translate(74.6667 20)"/>
</clipPath>
</defs>
</svg>
