<svg width="250" height="90" viewBox="0 0 250 90" fill="none" xmlns="http://www.w3.org/2000/svg">
<g clip-path="url(#clip0_29_209)">
<path fill-rule="evenodd" clip-rule="evenodd" d="M156.653 41.4581C157.043 42.1306 157.17 42.8958 157.213 43.756L157.268 44.9025V52.92L157.324 54.0678C157.438 55.9422 158.82 57.3282 160.709 57.4461L161.851 57.5026V44.9025L161.907 43.756C161.954 42.9054 162.08 42.1258 162.476 41.4484C162.879 40.7537 163.458 40.1773 164.155 39.7771C164.852 39.3769 165.641 39.167 166.445 39.1684C167.248 39.1699 168.037 39.3827 168.732 39.7854C169.427 40.1881 170.004 40.7667 170.405 41.4629C170.794 42.1354 170.916 42.915 170.963 43.756L171.019 44.8989V52.92L171.076 54.0678C171.194 55.9518 172.565 57.3378 174.46 57.4461L175.602 57.5026V43.756C175.602 41.3252 174.637 38.9939 172.918 37.2748C171.2 35.5556 168.869 34.5893 166.438 34.5883C165.137 34.587 163.851 34.8633 162.665 35.3987C161.479 35.9342 160.421 36.7166 159.562 37.6936C158.703 36.717 157.645 35.9348 156.459 35.3992C155.274 34.8635 153.988 34.5867 152.687 34.5871C150.783 34.5871 149.017 35.1646 147.554 36.162C146.661 35.1658 144.664 34.5871 143.518 34.5871V57.5026L144.664 57.4461C146.582 57.3197 147.968 55.9711 148.043 54.0678L148.104 52.92V44.9025L148.16 43.756C148.209 42.8909 148.329 42.1306 148.72 41.4532C149.124 40.7589 149.702 40.1826 150.398 39.782C151.094 39.3813 151.883 39.1702 152.687 39.1698C153.49 39.1699 154.28 39.3814 154.976 39.7831C155.672 40.1847 156.251 40.7623 156.653 41.4581ZM78.2074 57.4473L79.3539 57.5026H96.5402L96.4837 56.3597C96.3285 54.4756 94.9942 53.0993 93.1042 52.9765L91.9576 52.92H81.647L95.3937 39.1686L95.3371 38.0268C95.2481 36.1235 93.8573 34.7484 91.9576 34.6437L90.8111 34.592L73.6248 34.5871L73.6813 35.7337C73.8317 37.5997 75.1852 39.0049 77.0596 39.1132L78.2074 39.1698H88.5179L74.7713 52.9212L74.8279 54.0678C74.9409 55.9566 76.3041 57.3246 78.2074 57.4461V57.4473ZM139.019 37.9414C140.083 39.0053 140.928 40.2684 141.504 41.6587C142.079 43.0489 142.376 44.5389 142.376 46.0437C142.376 47.5485 142.079 49.0385 141.504 50.4287C140.928 51.8189 140.083 53.082 139.019 54.146C136.869 56.2942 133.954 57.5009 130.915 57.5009C127.876 57.5009 124.961 56.2942 122.811 54.146C118.337 49.6716 118.337 42.4157 122.811 37.9414C123.874 36.8778 125.137 36.0341 126.526 35.4584C127.915 34.8826 129.404 34.5862 130.908 34.5859C132.414 34.5849 133.906 34.8808 135.298 35.4568C136.69 36.0328 137.954 36.8775 139.019 37.9426V37.9414ZM135.777 41.1862C137.066 42.4759 137.79 44.2246 137.79 46.0479C137.79 47.8712 137.066 49.6199 135.777 50.9096C134.487 52.1984 132.738 52.9223 130.915 52.9223C129.092 52.9223 127.343 52.1984 126.053 50.9096C124.765 49.6199 124.041 47.8712 124.041 46.0479C124.041 44.2246 124.765 42.4759 126.053 41.1862C127.343 39.8974 129.092 39.1734 130.915 39.1734C132.738 39.1734 134.487 39.8974 135.777 41.1862ZM106.86 34.5859C108.364 34.5863 109.853 34.883 111.243 35.4589C112.632 36.0348 113.894 36.8788 114.957 37.9426C119.433 42.4157 119.433 49.6728 114.957 54.146C112.807 56.2942 109.892 57.5009 106.853 57.5009C103.814 57.5009 100.899 56.2942 98.7491 54.146C94.2748 49.6716 94.2748 42.4157 98.7491 37.9414C99.8123 36.8778 101.075 36.0341 102.464 35.4584C103.853 34.8826 105.342 34.5862 106.846 34.5859H106.86ZM111.715 41.1837C113.004 42.4735 113.728 44.2225 113.728 46.0461C113.728 47.8697 113.004 49.6186 111.715 50.9084C110.425 52.1972 108.676 52.9211 106.853 52.9211C105.03 52.9211 103.281 52.1972 101.991 50.9084C100.703 49.6187 99.9787 47.87 99.9787 46.0467C99.9787 44.2234 100.703 42.4747 101.991 41.1849C103.281 39.8962 105.03 39.1722 106.853 39.1722C108.676 39.1722 110.425 39.8962 111.715 41.1849V41.1837Z" fill="#E6E6E6"/>
</g>
<defs>
<clipPath id="clip0_29_209">
<rect width="102.083" height="50" fill="white" transform="translate(73.625 20)"/>
</clipPath>
</defs>
</svg>
